<?xml version="1.0" encoding="utf-8"?>
<!-- Generator: Adobe Illustrator 24.1.2, SVG Export Plug-In . SVG Version: 6.00 Build 0)  -->
<svg version="1.1" id="Flat" xmlns="http://www.w3.org/2000/svg" xmlns:xlink="http://www.w3.org/1999/xlink" x="0px" y="0px"
	 viewBox="0 0 512 512" style="enable-background:new 0 0 512 512;" xml:space="preserve">
<style type="text/css">
	.st0{fill:#F44336;}
	.st1{fill:#AF2525;}
	.st2{fill:#0097A7;}
	.st3{fill:#037177;}
	.st4{fill:#6ED2F0;}
	.st5{fill:#FFFFFF;}
	.st6{font-family:'Arial-BoldMT';}
	.st7{font-size:68.6085px;}
</style>
<path class="st0" d="M232,184v176c0,17.7-14.3,32-32,32H56c-17.7,0-32-14.3-32-32V152c0-17.7,14.3-32,32-32h112L232,184z"/>
<path class="st1" d="M232,184h-32c-17.7,0-32-14.3-32-32v-32L232,184z"/>
<path class="st2" d="M488,184v176c0,17.7-14.3,32-32,32H312c-17.7,0-32-14.3-32-32V152c0-17.7,14.3-32,32-32h112L488,184z"/>
<path class="st3" d="M488,184h-32c-17.7,0-32-14.3-32-32v-32L488,184z"/>
<path class="st4" d="M376,24c-4.4,0-8,3.6-8,8v15.6c-5.9-4-13.9-7.9-24.6-11.4C319.9,28.3,288.9,24,256,24s-63.9,4.3-87.4,12.1
	C135,47.3,128,61.8,128,72c0,4.4,3.6,8,8,8s8-3.6,8-8c0-13,43.6-32,112-32c55.2,0,94.3,12.4,107.3,24H336c-4.4,0-8,3.6-8,8
	s3.6,8,8,8h40c4.4,0,8-3.6,8-8V32C384,27.6,380.4,24,376,24z"/>
<path class="st4" d="M376,432c-4.4,0-8,3.6-8,8c0,13-43.6,32-112,32c-55.2,0-94.3-12.4-107.3-24H176c4.4,0,8-3.6,8-8s-3.6-8-8-8h-40
	c-4.4,0-8,3.6-8,8v40c0,4.4,3.6,8,8,8s8-3.6,8-8v-15.6c5.9,4,13.9,7.9,24.6,11.4c23.5,7.8,54.5,12.1,87.4,12.1s63.9-4.3,87.4-12.1
	C377,464.7,384,450.2,384,440C384,435.6,380.4,432,376,432z"/>
<text transform="matrix(1 0 0 1 64 292.8477)" class="st5 st6 st7">PDF</text>
<text transform="matrix(1 0 0 1 294.0186 291.0159)" class="st5 st6 st7">JPEG</text>
</svg>
